<?xml version="1.0" encoding="UTF-8"?>
<svg width="1200pt" height="1200pt" version="1.1" viewBox="0 0 1200 1200" xmlns="http://www.w3.org/2000/svg">
 <path d="m815.62 180.47h-18.75c6.8359-0.007812 13.387-2.7266 18.223-7.5586 4.832-4.8359 7.5508-11.387 7.5586-18.223v-2.3438c-0.007812-6.8359-2.7266-13.387-7.5586-18.223-4.8359-4.832-11.387-7.5508-18.223-7.5586h-28.125c-6.8359 0.007812-13.387 2.7266-18.223 7.5586-4.832 4.8359-7.5508 11.387-7.5586 18.223v2.3438c0.007812 6.8359 2.7266 13.387 7.5586 18.223 4.8359 4.832 11.387 7.5508 18.223 7.5586h-135.94v-42.188c-0.003906-4.9727-1.9844-9.7383-5.4961-13.254-3.5156-3.5117-8.2812-5.4922-13.254-5.4961h-28.125c-4.9727 0.003906-9.7383 1.9844-13.254 5.4961-3.5117 3.5156-5.4922 8.2812-5.4961 13.254v42.188h-135.94c6.8359-0.007812 13.387-2.7266 18.223-7.5586 4.832-4.8359 7.5508-11.387 7.5586-18.223v-2.3438c-0.007812-6.8359-2.7266-13.387-7.5586-18.223-4.8359-4.832-11.387-7.5508-18.223-7.5586h-28.125c-6.8359 0.007812-13.387 2.7266-18.223 7.5586-4.832 4.8359-7.5508 11.387-7.5586 18.223v2.3438c0.007812 6.8359 2.7266 13.387 7.5586 18.223 4.8359 4.832 11.387 7.5508 18.223 7.5586h-18.75c-4.9727 0.003906-9.7383 1.9844-13.254 5.4961-3.5117 3.5156-5.4922 8.2812-5.4961 13.254v28.125c0.003906 4.9727 1.9844 9.7383 5.4961 13.254 3.5156 3.5117 8.2812 5.4922 13.254 5.4961h182.81v63.281h-89.062c6.8359-0.007812 13.387-2.7266 18.223-7.5586 4.832-4.8359 7.5508-11.387 7.5586-18.223v-2.3438c-0.007812-6.8359-2.7266-13.387-7.5586-18.223-4.8359-4.832-11.387-7.5508-18.223-7.5586h-28.125c-6.8359 0.007812-13.387 2.7266-18.223 7.5586-4.832 4.8359-7.5508 11.387-7.5586 18.223v2.3438c0.007812 6.8359 2.7266 13.387 7.5586 18.223 4.8359 4.832 11.387 7.5508 18.223 7.5586h-18.75c-4.9727 0.003906-9.7383 1.9844-13.254 5.4961-3.5117 3.5156-5.4922 8.2812-5.4961 13.254v28.125c0.003906 4.9727 1.9844 9.7383 5.4961 13.254 3.5156 3.5117 8.2812 5.4922 13.254 5.4961h135.94v72.656c0 6.4727 5.2461 11.719 11.719 11.719s11.719-5.2461 11.719-11.719v-304.69h18.75v618.75h-18.75v-243.75c0-6.4727-5.2461-11.719-11.719-11.719s-11.719 5.2461-11.719 11.719v107.81h-11.719c-0.007812-6.2148-2.4766-12.172-6.8711-16.566-4.3945-4.3945-10.352-6.8633-16.566-6.8711h-84.375c-6.2148 0.007812-12.172 2.4766-16.566 6.8711-4.3945 4.3945-6.8633 10.352-6.8711 16.566v135.94c0.007812 6.2148 2.4766 12.172 6.8711 16.566 4.3945 4.3945 10.352 6.8633 16.566 6.8711h84.375c6.2148-0.007812 12.172-2.4766 16.566-6.8711 4.3945-4.3945 6.8633-10.352 6.8711-16.566h11.719v9.4609c-3.0195 4.0352-4.6641 8.9336-4.6875 13.977v278.91c0.003906 4.3516 1.7344 8.5195 4.8125 11.594 3.0742 3.0781 7.2422 4.8086 11.594 4.8125h42.188c4.3516-0.003906 8.5195-1.7344 11.594-4.8125 3.0781-3.0742 4.8086-7.2422 4.8125-11.594v-278.91c-0.023438-5.043-1.668-9.9492-4.6875-13.988v-396.17h135.94c4.9727-0.003906 9.7383-1.9844 13.254-5.4961 3.5117-3.5156 5.4922-8.2812 5.4961-13.254v-28.125c-0.003906-4.9727-1.9844-9.7383-5.4961-13.254-3.5156-3.5117-8.2812-5.4922-13.254-5.4961h-18.75c6.8359-0.007812 13.387-2.7266 18.223-7.5586 4.832-4.8359 7.5508-11.387 7.5586-18.223v-2.3438c-0.007812-6.8359-2.7266-13.387-7.5586-18.223-4.8359-4.832-11.387-7.5508-18.223-7.5586h-28.125c-6.8359 0.007812-13.387 2.7266-18.223 7.5586-4.832 4.8359-7.5508 11.387-7.5586 18.223v2.3438c0.007812 6.8359 2.7266 13.387 7.5586 18.223 4.8359 4.832 11.387 7.5508 18.223 7.5586h-89.062v-63.281h182.81c4.9727-0.003906 9.7383-1.9844 13.254-5.4961 3.5117-3.5156 5.4922-8.2812 5.4961-13.254v-28.125c-0.003906-4.9727-1.9844-9.7383-5.4961-13.254-3.5156-3.5117-8.2812-5.4922-13.254-5.4961zm-49.219-25.781v-2.3438c0-1.293 1.0508-2.3438 2.3438-2.3438h28.125c0.62109 0 1.2188 0.24609 1.6562 0.6875 0.44141 0.4375 0.6875 1.0352 0.6875 1.6562v2.3438c0 0.62109-0.24609 1.2188-0.6875 1.6562-0.4375 0.44141-1.0352 0.6875-1.6562 0.6875h-28.125c-1.293 0-2.3438-1.0508-2.3438-2.3438zm-365.62 0v-2.3438c0-1.293 1.0508-2.3438 2.3438-2.3438h28.125c0.62109 0 1.2188 0.24609 1.6562 0.6875 0.44141 0.4375 0.6875 1.0352 0.6875 1.6562v2.3438c0 0.62109-0.24609 1.2188-0.6875 1.6562-0.4375 0.44141-1.0352 0.6875-1.6562 0.6875h-28.125c-1.293 0-2.3438-1.0508-2.3438-2.3438zm46.875 128.91v-2.3438c0-1.293 1.0508-2.3438 2.3438-2.3438h28.125c0.62109 0 1.2188 0.24609 1.6562 0.6875 0.44141 0.4375 0.6875 1.0352 0.6875 1.6562v2.3438c0 0.62109-0.24609 1.2188-0.6875 1.6562-0.4375 0.44141-1.0352 0.6875-1.6562 0.6875h-28.125c-1.293 0-2.3438-1.0508-2.3438-2.3438zm-11.719 67.969v-18.75h131.25v18.75zm-46.875-128.91v-18.75h178.12v18.75zm58.594 539.06v-135.94h84.375l0.015625 135.94zm107.81-35.156v-65.625h11.719v65.625zm30.469 330.47v-271.88h28.125v271.88zm133.59-773.44v-2.3438c0-1.293 1.0508-2.3438 2.3438-2.3438h28.125c0.62109 0 1.2188 0.24609 1.6562 0.6875 0.44141 0.4375 0.6875 1.0352 0.6875 1.6562v2.3438c0 0.62109-0.24609 1.2188-0.6875 1.6562-0.4375 0.44141-1.0352 0.6875-1.6562 0.6875h-28.125c-1.293 0-2.3438-1.0508-2.3438-2.3438zm44.531 49.219v18.75h-131.25v-18.75zm46.875-110.16h-178.12v-18.75h178.12z" fill="#002e4f"/>
 <path d="m527.34 692.58c0 3.2344-2.625 5.8594-5.8594 5.8594s-5.8594-2.625-5.8594-5.8594 2.625-5.8594 5.8594-5.8594 5.8594 2.625 5.8594 5.8594z" fill="#002e4f"/>
</svg>
