<?xml version="1.0" encoding="UTF-8"?>
<svg width="1200pt" height="1200pt" version="1.1" viewBox="0 0 1200 1200" xmlns="http://www.w3.org/2000/svg">
 <path d="m600 75c-7.875 0-15.273 3.6992-20.023 10l-150 200c-3.2734 4.3984-4.8984 9.625-4.9258 14.898-0.023437 0.023437-0.023437 0.074218-0.050781 0.10156v60.852l-237.85 142.73c-7.625 4.5508-12 12.727-12.051 21.273-0.19922 33.301-0.10156 66.773-0.10156 100.15 0 13.801 11.199 25 25 25 13.801 0 25-11.199 25-25v-75h200v244.1l-140.43 280.9h-184.57c-13.801 0-25 11.199-25 25s11.199 25 25 25h1e3c13.801 0 25-11.199 25-25s-11.199-25-25-25h-184.57l-140.43-280.9v-244.1h200v75c0 13.801 11.199 25 25 25 13.801 0 25-11.199 25-25v-100c-0.125-10.602-8.25-15.75-12.148-21.426l-237.85-142.73v-60.852c-0.023438-0.050782-0.023438-0.10156-0.050782-0.14844-0.023437-5.25-1.6758-10.477-4.9258-14.852l-150-200c-4.75-6.3008-12.148-10-20.023-10zm0 66.648 100 133.35h-200zm-125 183.35h250v36.625l-125 83.352-125-83.352zm-50 94.148v80.852h-134.77zm350 0 134.77 80.852h-134.77zm-300 2.5742 79.926 53.273-79.926 53.273v-106.55zm250 0v106.55l-79.926-53.273 79.926-53.273zm-125 83.301 104.93 69.977-104.93 69.977-104.93-69.977zm-125 116.7 79.926 53.273-79.926 53.273v-106.55zm250 0v106.55l-79.926-53.273 79.926-53.273zm-125 83.301 123.68 82.477-123.68 82.477-123.68-82.477zm-140.27 131.5 95.199 63.477-190.48 126.95 95.273-190.43zm280.55 0 95.273 190.43-190.48-126.95 95.199-63.477zm-140.27 93.5 217.43 144.98h-434.85z" fill="#002e4f" fill-rule="evenodd"/>
</svg>
